<svg id="Layer_1" data-name="Layer 1" xmlns="http://www.w3.org/2000/svg" viewBox="0 0 150 150"><defs><style>.cls-1{fill:#0d9488;}</style></defs><g id="Layer_2" data-name="Layer 2"><path class="cls-1" d="M0,0H150V150H0Z" transform="translate(0 0)"/></g><path d="M113.7,68.49c15.4-21.43,1.88-57-24.42-56.81l-58.93,0V139.06l56.66.12c12.5,0,24.15-4.4,31.92-12.08C135.71,111.75,133,80.24,113.7,68.49ZM87,134.07,60.59,134v-4.88c19.46-.7,38.3,3.82,51.32-9,16.51-16.09,7.4-45.25-15.54-48.87-.3-.48-.66-1-1.2-1.7l-.27-.39c-.65-.84-1.46-1.79-2.36-2.81l-.09-.09a42.07,42.07,0,0,1,21.07,8.46c7.39,6.07,11.36,14.85,11.36,25.34C125.19,120.75,107.49,134.24,87,134.07ZM35.49,134V16.82h3.22V134Zm5,0V16.82h3.23V134C42.6,134,41.52,134,40.51,134Zm5,0V16.82h3.26V134Zm5,0V16.82h3.23V134Zm5,0V16.82H58.8V134C57.72,134,56.65,134,55.57,134ZM89.31,16.79c23.25-.06,33.84,33.1,18.74,50.72a35.73,35.73,0,0,0-4.66-2c14.35-14.36,5.66-43.85-14.88-43.81H60.59V16.82Zm8.22,56.6c20.56,3.93,28.07,31.16,13.12,45.43-5.52,5.47-13.89,8.61-22.92,8.61-.21,0-22.74-.06-27.14-.09v-5.2l28.46.06c7.23,0,13.92-2.54,18.41-6.93,12.38-12,5.94-34.21-11.66-37.18a5.09,5.09,0,0,1,.3-.42C98,74.6,97.85,74.85,97.53,73.39ZM71.68,98.83c1.7-1,3.41-2,5-3.14H92.09c4.07-.26,6.15,4.14,3.53,6.79a4.88,4.88,0,0,1-3.44,1.25l-29.41,0c1.63-.79,3.91-1.93,6-3.11H93.29a.9.9,0,1,0,0-1.79Zm20.53,6.72a5.83,5.83,0,1,0-.15-11.62H79.24c.18-.12.33-.24.48-.36l.3-.21c1.11-.81,2.09-1.61,3.08-2.39h8c8.77-.54,13.15,9,7.56,14.79a10.38,10.38,0,0,1-7.32,2.72H60.59v-3Zm-.89,4.73c15.22.09,15.62-21.26-.24-21.08H85.25c1.5-1.28,2.93-2.55,4.24-3.85,14.65-1,22.15,14.52,12.74,24.39a17.15,17.15,0,0,1-12,4.48c-.12,0-25,0-29.65-.06v-3.85C65.28,110.25,91.26,110.28,91.32,110.28Zm-1.08,5.64c22.69.31,24.44-31.43.9-32.3,1.31-1.38,2.51-2.72,3.52-4,16.73,2.25,23.16,23.19,11.6,34.4-4.15,4.1-10.4,6.43-17.15,6.43l-28.46-.06v-4.49Zm4.39-39.27c-.29.42-.62.9-1.07,1.5l0,0a58.62,58.62,0,0,1-5,5.62l-.33.35A87.79,87.79,0,0,1,78.88,92l-.18.15A99.87,99.87,0,0,1,68,99l-.71.42c-2.69,1.49-5,2.6-6.73,3.4V97.42c1-.53,2-1.1,3.08-1.79A84,84,0,0,0,77.3,85.41l.3-.3A62.11,62.11,0,0,0,82.44,80c.36-.45.69-.84,1-1.26.93-1.17,2.43-3.48,2.36-4.33-1.38-5-9-11.64-13.39-15.21a35.27,35.27,0,0,0-3-2.24,80.84,80.84,0,0,0-8.82-5.59v-5.5a117.64,117.64,0,0,1,10.7,5.71c.21.12.39.27.6.38,8,4.88,15.8,11.17,21.58,18.45l.39.53c.48.63.86,1.23,1.19,1.74a7,7,0,0,1,.9,1.76A17,17,0,0,1,94.63,76.65Zm-34,1.88a8.21,8.21,0,0,0,1-.86,10.89,10.89,0,0,0,2-2.39c.46-1.06.5-1-.84-2.81a14.06,14.06,0,0,0-2-2l-.24-.18V61.26C64.67,64.71,70,69.8,72,74.32a6.07,6.07,0,0,1-.54,1.23,42.19,42.19,0,0,1-6.84,8.22l-.3.29c-1.32,1.26-2.45,2.28-3.62,3.2a1.3,1.3,0,0,0-.21.18V78.56C60.62,78.56,60.62,78.53,60.65,78.53Zm-.06-2.36V72.71a10.12,10.12,0,0,1,.84.89,4.62,4.62,0,0,1,.6.84A9.69,9.69,0,0,1,60.59,76.17Zm.18,13.36c.39-.27.78-.56,1.17-.89A52.44,52.44,0,0,0,73.15,76.41a4.59,4.59,0,0,0,.77-2.06c-1-3.89-5.65-8.49-8.9-11.66-1.32-1.2-2.87-2.56-4.37-3.7V53.31a76.41,76.41,0,0,1,7.77,5l.54.42a81.22,81.22,0,0,1,7.11,5.89,48,48,0,0,1,6.49,7.17A10.37,10.37,0,0,1,84,74.26a19.61,19.61,0,0,1-2.92,4.51,54.44,54.44,0,0,1-4.7,5l-.3.29A82.74,82.74,0,0,1,60.65,95.3V89.65ZM88.3,41.47H60.59V37.14H88.36c11,.41,11.07,19.25,0,19.58H82.05a64.53,64.53,0,0,0-6-4.34H88.33C94.71,52.25,94.67,41.58,88.3,41.47Zm0,1.77c4,.1,4,7.28,0,7.35H73.21l-.36-.24c-.21-.15-.45-.3-.66-.42-1.2-.72-2.51-1.4-3.8-2.12H87.25a.9.9,0,1,0,0-1.79H65.17c-1.92-1-3.47-1.71-4.64-2.24v-.54Zm2.6,19.51c-.66-.06-1.32-.09-2-.15-1.38-1.34-3.06-2.85-4.67-4.15h4.13c13.41-.48,13.41-22.66,0-23.13H60.59V30.74l27.83,0C105.32,31.31,107.35,59.06,90.9,62.75Zm13.21-15.84c0-9.89-7-17.93-15.69-17.93L60.59,29V23.48l27.89,0c19.39,0,27,28.45,13,41.43a47.74,47.74,0,0,0-6.88-1.56C100.28,60.54,104.11,54.21,104.11,46.91Z" transform="translate(0 0)"/></svg>